<?xml version="1.0" encoding="UTF-8"?>
<!DOCTYPE svg PUBLIC "-//W3C//DTD SVG 1.1//EN" "http://www.w3.org/Graphics/SVG/1.1/DTD/svg11.dtd">
<svg xmlns="http://www.w3.org/2000/svg" version="1.1" width="480px" height="480px" style="shape-rendering:geometricPrecision; text-rendering:geometricPrecision; image-rendering:optimizeQuality; fill-rule:evenodd; clip-rule:evenodd" xmlns:xlink="http://www.w3.org/1999/xlink">
<g><path style="opacity:1" fill="#fcb217" d="M -0.5,-0.5 C 159.5,-0.5 319.5,-0.5 479.5,-0.5C 479.5,159.5 479.5,319.5 479.5,479.5C 319.5,479.5 159.5,479.5 -0.5,479.5C -0.5,319.5 -0.5,159.5 -0.5,-0.5 Z"/></g>
<g><path style="opacity:1" fill="#096208" d="M 16.5,13.5 C 166.167,13.5 315.833,13.5 465.5,13.5C 465.5,164.5 465.5,315.5 465.5,466.5C 315.833,466.5 166.167,466.5 16.5,466.5C 16.5,315.5 16.5,164.5 16.5,13.5 Z"/></g>
<g><path style="opacity:0.999" fill="#020201" d="M 147.5,53.5 C 222.209,58.5644 296.876,64.2311 371.5,70.5C 371.5,170.5 371.5,270.5 371.5,370.5C 297.499,370.667 223.499,370.5 149.5,370C 135.667,360.167 121.833,350.333 108,340.5C 107.333,261.833 107.333,183.167 108,104.5C 121.175,87.4699 134.342,70.4699 147.5,53.5 Z"/></g>
<g><path style="opacity:1" fill="#fab117" d="M 369.5,138.5 C 369.5,144.833 369.5,151.167 369.5,157.5C 365.833,157.5 362.167,157.5 358.5,157.5C 289.162,154.454 219.829,151.621 150.5,149C 136.667,161.5 122.833,174 109,186.5C 108.333,178.833 108.333,171.167 109,163.5C 123.13,151.706 136.963,139.539 150.5,127C 223.56,129.741 296.56,133.574 369.5,138.5 Z"/></g>
<g><path style="opacity:0.819" fill="#ae7b10" d="M 369.5,138.5 C 370.491,144.979 370.824,151.646 370.5,158.5C 366.298,158.817 362.298,158.483 358.5,157.5C 362.167,157.5 365.833,157.5 369.5,157.5C 369.5,151.167 369.5,144.833 369.5,138.5 Z"/></g>
<g><path style="opacity:1" fill="#fab117" d="M 268.5,170.5 C 296.505,171.108 324.505,171.941 352.5,173C 360.919,177.002 361.586,182.002 354.5,188C 326.495,187.91 298.495,187.243 270.5,186C 265.076,183.983 263.242,180.15 265,174.5C 266.376,173.295 267.542,171.962 268.5,170.5 Z"/></g>
<g><path style="opacity:1" fill="#fab017" d="M 188.5,175.5 C 193.539,182.14 198.705,182.14 204,175.5C 209.175,182.109 214.341,182.109 219.5,175.5C 224.707,182.122 229.874,182.122 235,175.5C 238.298,180.774 242.631,181.774 248,178.5C 248.5,210.832 248.667,243.165 248.5,275.5C 245.833,275.5 243.167,275.5 240.5,275.5C 240.5,289.833 240.5,304.167 240.5,318.5C 238.167,318.5 235.833,318.5 233.5,318.5C 232.833,250.5 232.167,250.5 231.5,318.5C 218.5,318.5 205.5,318.5 192.5,318.5C 191.833,259.833 191.167,259.833 190.5,318.5C 188.5,318.5 186.5,318.5 184.5,318.5C 184.5,304.167 184.5,289.833 184.5,275.5C 180.833,275.5 177.167,275.5 173.5,275.5C 173.333,242.498 173.5,209.498 174,176.5C 179.27,182.01 184.103,181.677 188.5,175.5 Z"/></g>
<g><path style="opacity:0.975" fill="#140e03" d="M 175.5,267.5 C 177.976,269.121 178.142,271.121 176,273.5C 175.505,271.527 175.338,269.527 175.5,267.5 Z"/></g>
<g><path style="opacity:0.962" fill="#1a1304" d="M 179.5,267.5 C 180.693,267.97 181.36,268.97 181.5,270.5C 181.167,271.5 180.833,272.5 180.5,273.5C 179.534,271.604 179.201,269.604 179.5,267.5 Z"/></g>
<g><path style="opacity:1" fill="#191204" d="M 183.5,267.5 C 184.693,267.97 185.36,268.97 185.5,270.5C 185.167,271.5 184.833,272.5 184.5,273.5C 183.534,271.604 183.201,269.604 183.5,267.5 Z"/></g>
<g><path style="opacity:0.969" fill="#1b1304" d="M 192.5,267.5 C 193.693,267.97 194.36,268.97 194.5,270.5C 194.167,271.5 193.833,272.5 193.5,273.5C 192.534,271.604 192.201,269.604 192.5,267.5 Z"/></g>
<g><path style="opacity:0.983" fill="#171003" d="M 205.5,267.5 C 206.693,267.97 207.36,268.97 207.5,270.5C 207.167,271.5 206.833,272.5 206.5,273.5C 205.534,271.604 205.201,269.604 205.5,267.5 Z"/></g>
<g><path style="opacity:1" fill="#1c1505" d="M 211.5,273.5 C 209.72,272.01 209.054,270.01 209.5,267.5C 210.5,267.5 211.5,267.5 212.5,267.5C 212.675,269.621 212.341,271.621 211.5,273.5 Z"/></g>
<g><path style="opacity:0.994" fill="#191204" d="M 218.5,267.5 C 219.693,267.97 220.36,268.97 220.5,270.5C 220.167,271.5 219.833,272.5 219.5,273.5C 218.534,271.604 218.201,269.604 218.5,267.5 Z"/></g>
<g><path style="opacity:0.757" fill="#72510c" d="M 222.5,268.5 C 223.209,267.596 224.209,267.263 225.5,267.5C 225.5,269.5 225.5,271.5 225.5,273.5C 224.209,273.737 223.209,273.404 222.5,272.5C 223.586,272.38 224.253,271.713 224.5,270.5C 224.253,269.287 223.586,268.62 222.5,268.5 Z"/></g>
<g><path style="opacity:0.993" fill="#1a1806" d="M 227.5,273.5 C 227.201,271.396 227.534,269.396 228.5,267.5C 228.833,268.5 229.167,269.5 229.5,270.5C 229.36,272.03 228.693,273.03 227.5,273.5 Z"/></g>
<g><path style="opacity:0.88" fill="#181805" d="M 244.5,267.5 C 245.693,267.97 246.36,268.97 246.5,270.5C 246.167,271.5 245.833,272.5 245.5,273.5C 244.534,271.604 244.201,269.604 244.5,267.5 Z"/></g>
<g><path style="opacity:0.824" fill="#31230a" d="M 188.5,267.5 C 189.693,267.97 190.36,268.97 190.5,270.5C 189.709,274.285 188.709,274.285 187.5,270.5C 187.685,269.416 188.018,268.416 188.5,267.5 Z"/></g>
<g><path style="opacity:0.852" fill="#130d03" d="M 201.5,267.5 C 203.976,269.121 204.142,271.121 202,273.5C 201.505,271.527 201.338,269.527 201.5,267.5 Z"/></g>
<g><path style="opacity:0.776" fill="#332408" d="M 235.5,267.5 C 237.484,267.484 238.484,268.484 238.5,270.5C 238.547,272 237.881,273 236.5,273.5C 235.534,271.604 235.201,269.604 235.5,267.5 Z"/></g>
<g><path style="opacity:0.82" fill="#231a07" d="M 240.5,267.5 C 242.976,269.121 243.142,271.121 241,273.5C 240.505,271.527 240.338,269.527 240.5,267.5 Z"/></g>
<g><path style="opacity:0.757" fill="#342508" d="M 196.5,267.5 C 197.5,267.5 198.5,267.5 199.5,267.5C 199.5,269.167 199.5,270.833 199.5,272.5C 198.5,272.5 197.5,272.5 196.5,272.5C 196.5,270.833 196.5,269.167 196.5,267.5 Z"/></g>
<g><path style="opacity:0.867" fill="#1f1707" d="M 214.5,267.5 C 215.693,267.97 216.36,268.97 216.5,270.5C 216.167,271.5 215.833,272.5 215.5,273.5C 214.534,271.604 214.201,269.604 214.5,267.5 Z"/></g>
<g><path style="opacity:0.786" fill="#181103" d="M 222.5,268.5 C 223.586,268.62 224.253,269.287 224.5,270.5C 224.253,271.713 223.586,272.38 222.5,272.5C 222.5,271.167 222.5,269.833 222.5,268.5 Z"/></g>
<g><path style="opacity:0.996" fill="#161003" d="M 211.5,273.5 C 213.131,278.1 214.131,283.1 214.5,288.5C 219.833,292.833 219.833,297.167 214.5,301.5C 213.508,305.783 213.174,310.116 213.5,314.5C 217.5,314.5 221.5,314.5 225.5,314.5C 225.5,300.833 225.5,287.167 225.5,273.5C 226.167,273.5 226.833,273.5 227.5,273.5C 227.5,287.833 227.5,302.167 227.5,316.5C 217.251,316.819 207.084,316.486 197,315.5C 196.5,301.837 196.333,288.171 196.5,274.5C 197.5,274.5 198.5,274.5 199.5,274.5C 199.5,287.833 199.5,301.167 199.5,314.5C 203.5,314.5 207.5,314.5 211.5,314.5C 211.826,310.116 211.492,305.783 210.5,301.5C 205.167,297.167 205.167,292.833 210.5,288.5C 211.494,283.544 211.827,278.544 211.5,273.5 Z"/></g>
<g><path style="opacity:1" fill="#efa916" d="M 152.5,281.5 C 165.526,291.115 165.693,301.115 153,311.5C 143.958,306.682 140.958,299.349 144,289.5C 146.729,286.601 149.562,283.934 152.5,281.5 Z"/></g>
<g><path style="opacity:0.995" fill="#0b0702" d="M 149.5,293.5 C 155.216,293.387 158.05,296.054 158,301.5C 155.09,304.429 151.757,305.095 148,303.5C 145.729,299.697 146.229,296.363 149.5,293.5 Z"/></g>
<g><path style="opacity:1" fill="#fab017" d="M 152.5,340.5 C 160.5,341.167 168.5,341.833 176.5,342.5C 175.135,347.427 173.469,352.26 171.5,357C 164.5,357.667 157.5,357.667 150.5,357C 136.833,348.167 123.167,339.333 109.5,330.5C 108.337,324.863 108.17,319.196 109,313.5C 123.402,322.752 137.902,331.752 152.5,340.5 Z"/></g>
<g><path style="opacity:1" fill="#fcb217" d="M 184.5,320.5 C 203.167,320.5 221.833,320.5 240.5,320.5C 240.5,321.5 240.5,322.5 240.5,323.5C 221.833,323.5 203.167,323.5 184.5,323.5C 184.5,322.5 184.5,321.5 184.5,320.5 Z"/></g>
<g><path style="opacity:1" fill="#d59614" d="M 184.5,324.5 C 203.167,324.5 221.833,324.5 240.5,324.5C 240.5,325.833 240.5,327.167 240.5,328.5C 221.833,328.5 203.167,328.5 184.5,328.5C 184.5,327.167 184.5,325.833 184.5,324.5 Z"/></g>
<g><path style="opacity:1" fill="#fab117" d="M 184.5,329.5 C 188.167,329.5 191.833,329.5 195.5,329.5C 195.5,331.5 195.5,333.5 195.5,335.5C 191.5,335.5 187.5,335.5 183.5,335.5C 183.833,333.5 184.167,331.5 184.5,329.5 Z"/></g>
<g><path style="opacity:1" fill="#fcb217" d="M 197.5,329.5 C 207.5,329.5 217.5,329.5 227.5,329.5C 227.5,331.5 227.5,333.5 227.5,335.5C 217.5,335.5 207.5,335.5 197.5,335.5C 197.5,333.5 197.5,331.5 197.5,329.5 Z"/></g>
<g><path style="opacity:1" fill="#f8af17" d="M 229.5,329.5 C 233.226,329.177 236.893,329.511 240.5,330.5C 241.167,331.833 241.833,333.167 242.5,334.5C 238.217,335.492 233.884,335.826 229.5,335.5C 229.5,333.5 229.5,331.5 229.5,329.5 Z"/></g>
<g><path style="opacity:1" fill="#fab117" d="M 182.5,337.5 C 184.167,337.5 185.833,337.5 187.5,337.5C 187.5,339.167 187.5,340.833 187.5,342.5C 185.5,342.5 183.5,342.5 181.5,342.5C 181.629,340.784 181.962,339.117 182.5,337.5 Z"/></g>
<g><path style="opacity:1" fill="#fab117" d="M 189.5,337.5 C 196.833,337.5 204.167,337.5 211.5,337.5C 211.5,339.167 211.5,340.833 211.5,342.5C 204.167,342.5 196.833,342.5 189.5,342.5C 189.5,340.833 189.5,339.167 189.5,337.5 Z"/></g>
<g><path style="opacity:1" fill="#f9b017" d="M 214.5,337.5 C 221.833,337.5 229.167,337.5 236.5,337.5C 236.5,339.167 236.5,340.833 236.5,342.5C 229.167,342.5 221.833,342.5 214.5,342.5C 214.5,340.833 214.5,339.167 214.5,337.5 Z"/></g>
<g><path style="opacity:1" fill="#f3ac17" d="M 243.5,340.5 C 242.082,342.308 240.082,342.975 237.5,342.5C 237.5,340.833 237.5,339.167 237.5,337.5C 239.5,337.5 241.5,337.5 243.5,337.5C 243.5,338.5 243.5,339.5 243.5,340.5 Z"/></g>
<g><path style="opacity:0.804" fill="#aa7810" d="M 152.5,340.5 C 160.86,340.169 169.193,340.502 177.5,341.5C 177.376,342.107 177.043,342.44 176.5,342.5C 168.5,341.833 160.5,341.167 152.5,340.5 Z"/></g>
<g><path style="opacity:0.839" fill="#bc8411" d="M 247.5,341.5 C 288.33,340.501 329.33,340.168 370.5,340.5C 370.822,346.358 370.489,352.025 369.5,357.5C 369.5,352.167 369.5,346.833 369.5,341.5C 328.833,341.5 288.167,341.5 247.5,341.5 Z"/></g>
<g><path style="opacity:1" fill="#fcb217" d="M 247.5,341.5 C 288.167,341.5 328.833,341.5 369.5,341.5C 369.5,346.833 369.5,352.167 369.5,357.5C 330.832,357.667 292.165,357.5 253.5,357C 251.202,351.939 249.202,346.773 247.5,341.5 Z"/></g>
<g><path style="opacity:0.753" fill="#624509" d="M 243.5,340.5 C 244.404,341.209 244.737,342.209 244.5,343.5C 241.941,343.802 239.607,343.468 237.5,342.5C 240.082,342.975 242.082,342.308 243.5,340.5 Z"/></g>
<g><path style="opacity:0.839" fill="#c28912" d="M 198.5,345.5 C 207.986,344.506 217.652,344.173 227.5,344.5C 227.784,346.415 227.451,348.081 226.5,349.5C 226.5,348.167 226.5,346.833 226.5,345.5C 217.167,345.5 207.833,345.5 198.5,345.5 Z"/></g>
<g><path style="opacity:1" fill="#dd9c15" d="M 180.5,344.5 C 185.833,344.5 191.167,344.5 196.5,344.5C 196.739,346.467 196.406,348.301 195.5,350C 190.177,350.499 184.844,350.666 179.5,350.5C 179.325,348.379 179.659,346.379 180.5,344.5 Z"/></g>
<g><path style="opacity:1" fill="#e5a115" d="M 198.5,345.5 C 207.833,345.5 217.167,345.5 226.5,345.5C 226.5,346.833 226.5,348.167 226.5,349.5C 217.348,350.494 208.015,350.827 198.5,350.5C 198.5,348.833 198.5,347.167 198.5,345.5 Z"/></g>
<g><path style="opacity:1" fill="#dd9c15" d="M 229.5,344.5 C 234.833,344.5 240.167,344.5 245.5,344.5C 245.854,346.541 245.854,348.374 245.5,350C 240.177,350.499 234.844,350.666 229.5,350.5C 229.5,348.5 229.5,346.5 229.5,344.5 Z"/></g>
<g><path style="opacity:0.776" fill="#93670e" d="M 223.5,352.5 C 216.5,352.5 209.5,352.5 202.5,352.5C 202.5,354.167 202.5,355.833 202.5,357.5C 201.539,355.735 201.205,353.735 201.5,351.5C 209.019,351.175 216.352,351.508 223.5,352.5 Z"/></g>
<g><path style="opacity:1" fill="#e3a115" d="M 178.5,351.5 C 180.308,352.918 180.975,354.918 180.5,357.5C 179.022,357.762 177.689,357.429 176.5,356.5C 177.174,354.805 177.841,353.138 178.5,351.5 Z"/></g>
<g><path style="opacity:1" fill="#e5a215" d="M 182.5,351.5 C 187.844,351.334 193.177,351.501 198.5,352C 199.406,353.699 199.739,355.533 199.5,357.5C 193.833,357.5 188.167,357.5 182.5,357.5C 182.5,355.5 182.5,353.5 182.5,351.5 Z"/></g>
<g><path style="opacity:1" fill="#fbb217" d="M 223.5,352.5 C 223.5,354.167 223.5,355.833 223.5,357.5C 216.5,357.5 209.5,357.5 202.5,357.5C 202.5,355.833 202.5,354.167 202.5,352.5C 209.5,352.5 216.5,352.5 223.5,352.5 Z"/></g>
<g><path style="opacity:1" fill="#eaa616" d="M 226.5,351.5 C 231.833,351.5 237.167,351.5 242.5,351.5C 242.5,353.5 242.5,355.5 242.5,357.5C 237.167,357.5 231.833,357.5 226.5,357.5C 226.5,355.5 226.5,353.5 226.5,351.5 Z"/></g>
<g><path style="opacity:0.999" fill="#e4a115" d="M 244.5,351.5 C 248.009,351.808 249.676,353.808 249.5,357.5C 247.833,357.5 246.167,357.5 244.5,357.5C 244.5,355.5 244.5,353.5 244.5,351.5 Z"/></g>
<g><path style="opacity:1" fill="#f8af17" d="M 190.5,364.5 C 185.056,365.108 180.056,364.442 175.5,362.5C 175.5,361.5 175.5,360.5 175.5,359.5C 180.5,359.5 185.5,359.5 190.5,359.5C 190.5,361.167 190.5,362.833 190.5,364.5 Z"/></g>
<g><path style="opacity:1" fill="#e29f15" d="M 192.5,359.5 C 198.833,359.5 205.167,359.5 211.5,359.5C 211.5,361.5 211.5,363.5 211.5,365.5C 205.167,365.5 198.833,365.5 192.5,365.5C 192.5,363.5 192.5,361.5 192.5,359.5 Z"/></g>
<g><path style="opacity:1" fill="#eaa516" d="M 213.5,359.5 C 219.167,359.5 224.833,359.5 230.5,359.5C 230.5,361.5 230.5,363.5 230.5,365.5C 225.156,365.666 219.823,365.499 214.5,365C 213.594,363.301 213.261,361.467 213.5,359.5 Z"/></g>
<g><path style="opacity:1" fill="#eea816" d="M 232.5,359.5 C 238.868,359.17 245.202,359.504 251.5,360.5C 252.309,362.071 252.643,363.738 252.5,365.5C 245.833,365.5 239.167,365.5 232.5,365.5C 232.5,363.5 232.5,361.5 232.5,359.5 Z"/></g>
<g><path style="opacity:0.761" fill="#77540b" d="M 175.5,362.5 C 180.056,364.442 185.056,365.108 190.5,364.5C 185.36,365.488 180.026,365.821 174.5,365.5C 174.263,364.209 174.596,363.209 175.5,362.5 Z"/></g>
<g><path style="opacity:1" fill="#f8b117" d="M 109.5,390.5 C 129.193,390.153 148.86,390.653 168.5,392C 176.2,392.344 183.2,394.678 189.5,399C 193.367,406.071 191.7,411.404 184.5,415C 171.769,418.716 158.769,420.216 145.5,419.5C 145.335,422.85 145.502,426.183 146,429.5C 148.007,430.669 150.173,431.335 152.5,431.5C 152.5,432.5 152.5,433.5 152.5,434.5C 137.921,434.824 123.421,434.49 109,433.5C 108.383,432.551 108.549,431.718 109.5,431C 111.433,430.749 113.266,430.249 115,429.5C 115.5,418.172 115.667,406.838 115.5,395.5C 113.194,395.007 110.861,394.674 108.5,394.5C 108.433,393.041 108.766,391.708 109.5,390.5 Z"/></g>
<g><path style="opacity:1" fill="#f8b117" d="M 199.5,390.5 C 215.837,390.333 232.17,390.5 248.5,391C 258.217,391.285 267.55,393.285 276.5,397C 282.676,402.031 283.009,407.364 277.5,413C 272.867,415.742 267.867,417.409 262.5,418C 253.204,419.182 243.87,419.682 234.5,419.5C 234.335,422.85 234.502,426.183 235,429.5C 237.577,430.271 240.077,431.271 242.5,432.5C 242.291,433.086 241.957,433.586 241.5,434C 227.5,434.667 213.5,434.667 199.5,434C 198.167,433 198.167,432 199.5,431C 201.134,430.506 202.801,430.34 204.5,430.5C 204.5,418.833 204.5,407.167 204.5,395.5C 202.5,395.167 200.5,394.833 198.5,394.5C 198.433,393.041 198.766,391.708 199.5,390.5 Z"/></g>
<g><path style="opacity:1" fill="#f8b117" d="M 288.5,390.5 C 305.17,390.333 321.837,390.5 338.5,391C 349.247,391.145 359.247,393.812 368.5,399C 372.367,406.071 370.7,411.404 363.5,415C 350.769,418.716 337.769,420.216 324.5,419.5C 324.335,422.85 324.502,426.183 325,429.5C 327.007,430.669 329.173,431.335 331.5,431.5C 331.5,432.5 331.5,433.5 331.5,434.5C 317.167,434.5 302.833,434.5 288.5,434.5C 288.5,433.167 288.5,431.833 288.5,430.5C 290.467,430.739 292.301,430.406 294,429.5C 294.667,418.5 294.667,407.5 294,396.5C 292.088,395.308 290.088,394.308 288,393.5C 287.53,392.423 287.697,391.423 288.5,390.5 Z"/></g>
<g><path style="opacity:1" fill="#0f6409" d="M 145.5,393.5 C 150.118,392.924 154.285,393.924 158,396.5C 158.667,402.167 158.667,407.833 158,413.5C 157.5,414 157,414.5 156.5,415C 152.974,416.337 149.308,416.837 145.5,416.5C 145.5,408.833 145.5,401.167 145.5,393.5 Z"/></g>
<g><path style="opacity:1" fill="#1a6609" d="M 234.5,393.5 C 238.712,393.078 242.712,393.744 246.5,395.5C 247.192,396.025 247.692,396.692 248,397.5C 248.667,402.833 248.667,408.167 248,413.5C 247.5,414 247,414.5 246.5,415C 242.637,416.354 238.637,416.854 234.5,416.5C 234.5,408.833 234.5,401.167 234.5,393.5 Z"/></g>
<g><path style="opacity:1" fill="#0f6409" d="M 324.5,393.5 C 329.118,392.924 333.285,393.924 337,396.5C 337.667,402.167 337.667,407.833 337,413.5C 336.5,414 336,414.5 335.5,415C 331.974,416.337 328.308,416.837 324.5,416.5C 324.5,408.833 324.5,401.167 324.5,393.5 Z"/></g>
</svg>
